<svg version="1.1" xmlns="http://www.w3.org/2000/svg" xmlns:xlink="http://www.w3.org/1999/xlink" width="62.94475" height="110.93937" viewBox="0,0,62.94475,110.93937"><g transform="translate(-204.4949,-124.26864)"><g data-paper-data="{&quot;isPaintingLayer&quot;:true}" fill-rule="nonzero" stroke-linejoin="miter" stroke-miterlimit="10" stroke-dasharray="" stroke-dashoffset="0" style="mix-blend-mode: normal"><path d="M220.66274,126.5994c3.76445,-1.59208 10.28026,9.00685 14.03636,14.68346c7.13075,10.61523 13.84578,21.82997 18.39373,33.8403c4.74011,12.52002 7.26395,25.88404 8.79581,39.15212c0.89747,6.23198 2.39151,17.31003 -1.5776,18.76304c-3.99948,1.46432 -10.45993,-7.52523 -13.97652,-12.96915c-7.45282,-10.97 -13.85754,-23.01108 -18.45358,-35.55461c-4.36373,-11.90763 -6.96154,-24.53792 -8.48293,-37.06909c-0.90427,-6.94019 -2.64502,-19.19048 1.26472,-20.84607z" fill="#00cc44" stroke="#009933" stroke-width="4.33939" stroke-linecap="round"/><path d="M235.01481,164.84983c1.91865,-0.71461 4.2212,0.15052 6.3922,2.1261c2.16979,1.97603 4.20691,5.06299 5.59482,8.78912c1.38799,3.7261 1.86686,7.39337 1.51859,10.30744c-0.34941,2.9145 -1.52482,5.07515 -3.44353,5.7899c-1.91875,0.71465 -4.22129,-0.15049 -6.3922,-2.1261c-2.16979,-1.97603 -4.20691,-5.06299 -5.59482,-8.78912c-1.38799,-3.7261 -1.86686,-7.39337 -1.51868,-10.30741c0.34941,-2.9145 1.52492,-5.07518 3.44362,-5.78993z" fill="#666666" stroke="#009933" stroke-width="2.47431" stroke-linecap="butt"/><path d="M235.77298,179.24669c0.49488,-0.07222 0.53576,0.91994 0.81024,1.45896c0.36741,0.7372 1.39711,1.85717 0.77893,2.37765c-1.64239,1.04834 -3.81214,1.11917 -5.7608,1.07882c-1.34898,-0.02897 -3.09223,-0.25997 -3.85348,-1.39252c-1.40761,-2.07724 -2.37746,-4.79247 -2.20173,-7.34329c0.12579,-0.91976 2.2861,-0.89854 2.8562,-0.2103c1.37643,1.66963 0.30015,5.18328 2.15183,6.13479c1.66617,0.85195 3.30207,-1.91833 5.21881,-2.10411z" fill="#ff0000" stroke="#cc0000" stroke-width="2" stroke-linecap="round"/><path d="M249.60229,174.62533c0.77792,-1.93102 -2.33476,-3.88434 -2.38611,-6.04753c-0.01908,-0.8935 1.60086,-2.32291 2.29785,-1.70962c1.80155,1.81426 2.84447,4.50223 3.13884,6.99423c0.16524,1.35451 -1.00214,2.66975 -2.0034,3.57422c-1.44732,1.3053 -3.13469,2.67122 -5.06263,2.9529c-0.80812,0.01072 -0.76202,-1.50999 -0.96637,-2.30788c-0.14519,-0.58724 -0.76331,-1.36435 -0.34169,-1.63349c1.57118,-1.11341 4.62067,-0.08848 5.32351,-1.82286z" fill="#ff0000" stroke="#cc0000" stroke-width="2" stroke-linecap="round"/><path d="M238.37541,174.32447c1.22065,-0.40994 2.72233,-0.67583 3.80028,-0.53209c1.07701,0.1441 1.7454,0.59197 2.15239,1.32928c0.68388,1.23718 1.84163,3.208 0.85378,4.29736c-1.00159,1.15849 -3.35324,-0.46481 -4.83428,0.19999c-1.57819,0.71065 -2.29917,3.72276 -3.79998,3.54973c-1.47537,-0.22515 -1.8936,-2.75737 -2.15278,-4.34689c-0.15618,-0.96092 0.2514,-2.0668 0.82841,-2.78964c0.84924,-0.88838 2.04616,-1.33636 3.15218,-1.70775z" fill="#ff9400" stroke="#cc7700" stroke-width="2" stroke-linecap="round"/><path d="M239.40624,177.30213c1.51904,-0.56583 3.09114,-0.55383 4.40318,-0.07679c1.31333,0.47763 2.36628,1.41933 2.84757,2.71151c0.48134,1.29228 0.30114,2.6933 -0.37966,3.91381c-0.68024,1.21912 -1.86137,2.25667 -3.38041,2.82251c-1.51904,0.56583 -3.09114,0.55383 -4.40318,0.07679c-1.31329,-0.47753 -2.36623,-1.41924 -2.84757,-2.71151c-0.48134,-1.29228 -0.30114,-2.6933 0.3797,-3.91371c0.68024,-1.21912 1.86134,-2.25677 3.38038,-2.8226z" fill="#ff0000" stroke="#cc0000" stroke-width="2" stroke-linecap="butt"/><path d="M218.49942,176.23248l36.90325,-13.37287" fill="none" stroke="#000000" stroke-width="2" stroke-linecap="round"/><path d="M210.21635,174.99397c1.67673,-0.488 3.51367,-0.19369 5.17171,0.10104c0.81919,0.18142 1.78372,0.58519 2.00619,1.28024c0.23716,0.74613 -0.30079,1.56968 -0.85995,2.18777c-0.98876,1.34583 -2.07584,2.82213 -3.66507,3.55283c-1.42337,0.65184 -3.22597,0.74713 -4.52516,0.49686c-1.29918,-0.25028 -2.28699,-0.89604 -2.65275,-1.87815c-0.36586,-0.98207 -0.04138,-2.11677 0.7775,-3.15595c0.81888,-1.03919 2.24781,-2.14553 3.74751,-2.58465z" fill="#ff9400" stroke="#cc7700" stroke-width="2.39285" stroke-linecap="round"/><path d="M259.06523,157.31039c1.37466,-0.70848 3.22597,-0.74713 4.52524,-0.49689c1.29914,0.25018 2.28689,0.89607 2.65275,1.87815c0.36576,0.98211 0.04125,2.11671 -0.77762,3.1559c-0.81885,1.03928 -2.24571,2.15872 -3.74748,2.58474c-1.66421,0.47048 -3.35487,-0.00951 -4.90435,-0.36071c-0.88838,-0.11732 -2.01282,-0.28538 -2.27355,-1.02059c-0.21513,-0.60493 0.69811,-1.36343 1.174,-1.9313c1.0386,-1.35259 1.81026,-3.01131 3.35101,-3.8093z" fill="#ff9400" stroke="#cc7700" stroke-width="2.39285" stroke-linecap="round"/></g></g></svg>