<svg version="1.1" xmlns="http://www.w3.org/2000/svg" xmlns:xlink="http://www.w3.org/1999/xlink" width="63.14168" height="113.63229" viewBox="0,0,63.14168,113.63229"><g transform="translate(-211.27218,-121.43879)"><g data-paper-data="{&quot;isPaintingLayer&quot;:true}" fill-rule="nonzero" stroke-linejoin="miter" stroke-miterlimit="10" stroke-dasharray="" stroke-dashoffset="0" style="mix-blend-mode: normal"><path d="M255.6302,123.60848c3.97457,0.95318 2.9272,13.3506 2.58059,20.14855c-0.56216,12.77555 -1.81473,25.78682 -5.28357,38.15205c-3.61673,12.88948 -9.51805,25.1427 -16.16075,36.72989c-2.97684,5.5481 -8.35004,15.35035 -12.40678,14.16377c-4.08789,-1.1955 -3.95124,-12.26487 -3.54999,-18.73338c0.51354,-13.25223 2.50634,-26.74433 6.25297,-39.56722c3.55614,-12.17324 8.96241,-23.87986 15.17613,-34.86779c3.39174,-6.12209 9.2622,-17.01418 13.3914,-16.02587z" fill="#00cc44" stroke="#009933" stroke-width="4.33939" stroke-linecap="round"/><path d="M244.47625,162.91073c1.96827,0.56374 3.30781,2.62671 3.88235,5.50526c0.5733,2.87819 0.38042,6.5717 -0.71433,10.39425c-1.09466,3.82257 -2.88605,7.05817 -4.89604,9.19664c-2.01115,2.13814 -4.2396,3.17931 -6.208,2.61564c-1.96837,-0.56377 -3.3079,-2.62674 -3.88235,-5.50526c-0.5733,-2.87819 -0.38042,-6.5717 0.71433,-10.39425c1.09466,-3.82257 2.88605,-7.05817 4.89595,-9.19667c2.01115,-2.13814 4.2397,-3.17928 6.20809,-2.61561z" fill="#666666" stroke="#009933" stroke-width="2.47431" stroke-linecap="butt"/><path d="M236.54089,174.94711c0.44114,0.23563 -0.11488,1.05836 -0.21392,1.65508c-0.14189,0.81137 0.02201,2.3239 -0.78443,2.37584c-1.94403,-0.13119 -3.73225,-1.36208 -5.27655,-2.55122c-1.06844,-0.82402 -2.33426,-2.04467 -2.27466,-3.40798c0.10016,-2.50724 0.93132,-5.26809 2.58683,-7.21664c0.64717,-0.66554 2.37316,0.63383 2.42345,1.5261c0.11669,2.1607 -2.83508,4.34958 -1.90966,6.21444c0.83521,1.67462 3.79611,0.41617 5.44894,1.40437z" fill="#ff0000" stroke="#cc0000" stroke-width="2" stroke-linecap="round"/><path d="M250.41358,179.43656c1.77225,-1.0923 0.42665,-4.51189 1.66932,-6.28327c0.515,-0.7304 2.66715,-0.91922 2.86405,-0.01194c0.37297,2.52943 -0.3832,5.31171 -1.62547,7.49196c-0.67101,1.18817 -2.39118,1.55373 -3.73385,1.68732c-1.93956,0.1914 -4.1083,0.2891 -5.82707,-0.62857c-0.65672,-0.47105 0.28302,-1.66753 0.59217,-2.43095c0.23172,-0.55878 0.19554,-1.55108 0.6946,-1.51742c1.92534,0.03655 3.77116,2.67148 5.36626,1.69286z" fill="#ff0000" stroke="#cc0000" stroke-width="2" stroke-linecap="round"/><path d="M241.55696,172.53051c1.22569,0.39463 2.59204,1.07199 3.37423,1.82751c0.78123,0.75525 1.05329,1.51242 0.94319,2.34738c-0.18397,1.40159 -0.42205,3.67488 -1.86367,3.96522c-1.4937,0.33782 -2.42273,-2.36445 -4.00926,-2.70853c-1.69192,-0.36484 -4.06005,1.6313 -5.16517,0.60122c-1.05371,-1.05693 0.11275,-3.34307 0.84766,-4.77613c0.44468,-0.86604 1.42911,-1.5141 2.32253,-1.75334c1.21077,-0.21087 2.43994,0.13906 3.55049,0.49667z" fill="#ff9400" stroke="#cc7700" stroke-width="2" stroke-linecap="round"/><path d="M240.61911,175.53875c1.55836,0.44628 2.81643,1.38909 3.58919,2.55179c0.77344,1.16394 1.06187,2.5468 0.68221,3.87241c-0.37968,1.32571 -1.35631,2.34627 -2.62866,2.92441c-1.27108,0.57736 -2.83749,0.71128 -4.39585,0.265c-1.55836,-0.44628 -2.81643,-1.38909 -3.58919,-2.55179c-0.77347,-1.16384 -1.06189,-2.5467 -0.68221,-3.87241c0.37968,-1.32571 1.35631,-2.34627 2.62863,-2.92431c1.27108,-0.57736 2.83752,-0.71138 4.39588,-0.26509z" fill="#ff0000" stroke="#cc0000" stroke-width="2" stroke-linecap="butt"/><path d="M224.42856,162.26828l37.63684,11.14235" fill="none" stroke="#000000" stroke-width="2" stroke-linecap="round"/><path d="M218.49762,156.35497c1.63906,0.60252 2.94271,1.92972 4.10213,3.15108c0.55159,0.63225 1.08816,1.52971 0.85464,2.22113c-0.25202,0.74124 -1.17378,1.08471 -1.99066,1.25024c-1.59458,0.4962 -3.34573,1.03905 -5.05844,0.68379c-1.53242,-0.32028 -3.03968,-1.31356 -3.93669,-2.28613c-0.897,-0.97257 -1.30867,-2.0786 -1.02008,-3.08609c0.28849,-1.00752 1.22315,-1.7281 2.49899,-2.07836c1.27585,-0.35026 3.08252,-0.39246 4.5501,0.14432z" fill="#ff9400" stroke="#cc7700" stroke-width="2.39285" stroke-linecap="round"/><path d="M268.3068,171.11869c1.52684,0.24578 3.03968,1.31356 3.93678,2.28615c0.89703,0.97247 1.30857,2.07857 1.02008,3.08609c-0.28859,1.00749 -1.22322,1.72798 -2.49906,2.07824c-1.27588,0.35035 -3.08866,0.40432 -4.55013,-0.14423c-1.61859,-0.60919 -2.6943,-1.999 -3.73283,-3.20136c-0.64532,-0.62173 -1.45049,-1.42442 -1.22393,-2.17086c0.18593,-0.61453 1.37112,-0.68289 2.09117,-0.85743c1.6387,-0.47206 3.24429,-1.34894 4.95792,-1.07661z" fill="#ff9400" stroke="#cc7700" stroke-width="2.39285" stroke-linecap="round"/></g></g></svg>